<svg xmlns="http://www.w3.org/2000/svg" xml:space="preserve" id="Isolation_Mode" x="0" y="0" style="enable-background:new 0 0 125 125" version="1.1" viewBox="0 0 125 125"><style>.st0{fill:#006838}.st1{fill:#1c75bc}.st2{fill:#f7941d}.st3{fill:#ffd400}.st4{fill:#58595b}.st5{fill:#a7a9ac}</style><path d="M105.5 66 83.9 87.6l-10-10L85.5 66c2.1-2.1 2.1-5.4 0-7.5L73.9 47l10-10 21.6 21.6c2.1 2 2.1 5.4 0 7.4z" class="st0"/><path d="M86.8 66 65.2 87.6l-10-10L66.8 66c2.1-2.1 2.1-5.4 0-7.5L55.2 47l10-10 21.6 21.6c2.1 2 2.1 5.4 0 7.4z" class="st1"/><path d="M68.2 66 46.6 87.6l-10-10L48.2 66c2.1-2.1 2.1-5.4 0-7.5L36.6 47l10-10 21.6 21.6c2.1 2 2.1 5.4 0 7.4z" class="st2"/><path d="M49.5 66 27.9 87.6l-10-10L29.5 66c2.1-2.1 2.1-5.4 0-7.5L17.9 47l10-10 21.6 21.6c2.1 2 2.1 5.4 0 7.4z" class="st3"/><path d="M105.5 35.2 83.9 56.8l-10-10 11.6-11.6c2.1-2.1 2.1-5.4 0-7.5L73.9 16.1l10-10 21.6 21.6c2.1 2.1 2.1 5.5 0 7.5z" class="st0"/><path d="M86.9 35.2 65.3 56.8l-10-10 11.6-11.6c2.1-2.1 2.1-5.4 0-7.5L55.3 16.1l10-10 21.6 21.6c2 2.1 2 5.5 0 7.5z" class="st1"/><path d="M68.2 35.2 46.6 56.8l-10-10 11.6-11.6c2.1-2.1 2.1-5.4 0-7.5L36.6 16.1l10-10 21.6 21.6c2.1 2.1 2.1 5.5 0 7.5z" class="st2"/><path d="M49.5 35.2 27.9 56.8l-10-10 11.6-11.6c2.1-2.1 2.1-5.4 0-7.5L17.9 16.1l10-10 21.6 21.6c2.1 2.1 2.1 5.5 0 7.5z" class="st3"/><path d="M40.3 109.3h-7.1V95.7h1.6v12.2h5.5v1.4zM47.2 109.5c-1.9 0-3.5-.6-4.6-1.9-1.2-1.3-1.7-2.9-1.7-5 0-2.2.6-3.9 1.8-5.2 1.2-1.3 2.8-2 4.8-2 1.9 0 3.4.6 4.5 1.9 1.1 1.3 1.7 2.9 1.7 5 0 2.2-.6 4-1.8 5.3-1.1 1.3-2.7 1.9-4.7 1.9zm.1-12.6c-1.4 0-2.6.5-3.5 1.5-.9 1-1.3 2.4-1.3 4.1 0 1.7.4 3 1.3 4s2 1.5 3.4 1.5c1.5 0 2.7-.5 3.5-1.5.9-1 1.3-2.3 1.3-4.1 0-1.8-.4-3.2-1.3-4.2-.7-.8-1.9-1.3-3.4-1.3zM66.2 109.3h-1.9l-2.3-3.8c-.2-.4-.4-.7-.6-.9-.2-.2-.4-.5-.6-.6-.2-.2-.4-.3-.7-.3-.2-.1-.5-.1-.8-.1H58v5.8h-1.6V95.7h4.1c.6 0 1.1.1 1.6.2s.9.4 1.3.7c.4.3.7.7.9 1.1.2.5.3 1 .3 1.6 0 .5-.1.9-.2 1.3s-.3.7-.6 1.1c-.3.3-.6.6-.9.8-.4.2-.8.4-1.2.5l.6.3c.2.1.3.3.5.5s.3.4.5.6c.1.2.3.5.5.8l2.4 4.1zM58 97.1v4.9h2.2c.4 0 .8-.1 1.1-.2.3-.1.6-.3.9-.5.2-.2.4-.5.6-.8.1-.3.2-.7.2-1.1 0-.7-.2-1.3-.7-1.7-.5-.4-1.2-.6-2-.6H58zM75.2 109.3H68V95.7h6.9v1.4h-5.3v4.5h4.9v1.4h-4.9v4.8h5.6v1.5zM91.8 109.3h-1.6v-9.1c0-.7 0-1.6.1-2.6-.2.6-.3 1.1-.4 1.3l-4.7 10.5h-.8L79.8 99c-.1-.3-.3-.8-.4-1.4.1.5.1 1.4.1 2.7v9.1H78V95.7h2l4.2 9.5c.3.7.5 1.3.6 1.6h.1c.3-.7.5-1.3.7-1.7l4.3-9.5h2v13.7z" class="st4"/><path d="M34.8 116.8c-.1.2-.3.3-.4.4-.1.1-.3.2-.4.2-.1.1-.2.1-.4.1h-.3c-.3 0-.5-.1-.7-.2-.2-.1-.4-.3-.5-.5-.1-.2-.3-.4-.3-.7-.1-.3-.1-.6-.1-.9 0-.4 0-.7.1-1 .1-.3.2-.5.4-.7.2-.2.3-.4.6-.5.2-.1.4-.2.7-.2h.3c.1 0 .2 0 .3.1.1 0 .2.1.4.2.1.1.3.2.4.3v-2.2h.5v6.2h-.5v-.6zm0-2.9c-.2-.2-.4-.4-.6-.5-.2-.1-.5-.2-.7-.2-.2 0-.4 0-.6.1-.2.1-.3.2-.4.4l-.3.6c-.1.2-.1.5-.1.8 0 .6.1 1 .3 1.4.2.3.6.5 1 .5.3 0 .5-.1.7-.2.2-.1.4-.4.7-.7v-2.2zM38.4 112.9c.3 0 .6.1.8.2.2.1.4.3.6.5.2.2.3.4.4.7.1.3.1.6.1 1s0 .7-.1 1c-.1.3-.2.5-.4.7-.2.2-.4.3-.6.5-.2.1-.5.2-.8.2-.3 0-.6-.1-.8-.2-.2-.1-.4-.3-.6-.4-.2-.2-.3-.4-.4-.7-.1-.3-.1-.6-.1-1s0-.7.1-1c.1-.3.2-.5.4-.7.2-.2.4-.3.6-.4.2-.4.5-.4.8-.4zm0 4.1c.2 0 .4 0 .6-.1.2-.1.3-.2.5-.4l.3-.6c.1-.2.1-.5.1-.8 0-.3 0-.6-.1-.8l-.3-.6c-.1-.2-.3-.3-.5-.3-.2-.1-.4-.1-.6-.1-.2 0-.4 0-.6.1-.2.1-.3.2-.5.3-.1.2-.2.3-.3.6-.1.2-.1.5-.1.8 0 .3 0 .6.1.8l.3.6c.1.2.3.3.5.4.1.1.3.1.6.1zM42 117.4h-.5v-6.2h.5v6.2zM45.2 112.9c.3 0 .6.1.8.2.2.1.4.3.6.5.2.2.3.4.4.7.1.3.1.6.1 1s0 .7-.1 1c-.1.3-.2.5-.4.7-.2.2-.4.3-.6.5-.2.1-.5.2-.8.2-.3 0-.6-.1-.8-.2-.2-.1-.4-.3-.6-.4-.2-.2-.3-.4-.4-.7-.1-.3-.1-.6-.1-1s0-.7.1-1c.1-.3.2-.5.4-.7.2-.2.4-.3.6-.4.2-.4.5-.4.8-.4zm0 4.1c.2 0 .4 0 .6-.1.2-.1.3-.2.5-.4l.3-.6c.1-.2.1-.5.1-.8 0-.3 0-.6-.1-.8l-.3-.6c-.1-.2-.3-.3-.5-.3-.2-.1-.4-.1-.6-.1-.2 0-.4 0-.6.1-.2.1-.3.2-.5.3-.1.2-.2.3-.3.6-.1.2-.1.5-.1.8 0 .3 0 .6.1.8l.3.6c.1.2.3.3.5.4.1.1.3.1.6.1zM50.3 113.3H50c-.1 0-.3 0-.4.1-.1.1-.2.1-.3.2l-.3.3c-.1.1-.2.2-.2.3v3.1h-.5V113h.5v.6c.1-.2.3-.3.4-.4.1-.1.2-.2.4-.2.1-.1.2-.1.3-.1h.5v.4zM57.7 117.5c-1.1 0-1.7-.4-1.8-1.3h.5c0 .3.2.5.4.6.2.1.5.2.9.2.2 0 .4 0 .5-.1.2 0 .3-.1.4-.2.1-.1.2-.2.2-.3 0-.1.1-.2.1-.3 0-.1 0-.2-.1-.3 0-.1-.1-.2-.2-.2-.1-.1-.2-.1-.4-.2s-.4-.1-.7-.2c-.2-.1-.4-.1-.6-.2-.2-.1-.3-.1-.5-.2l-.3-.3c-.1-.1-.1-.3-.1-.5s0-.3.1-.5c.1-.1.2-.3.3-.4.1-.1.3-.2.5-.2.2-.1.4-.1.6-.1.5 0 .9.1 1.2.3.3.2.4.5.4.8h-.5c0-.2-.1-.4-.3-.5-.2-.1-.4-.2-.8-.2H57c-.1 0-.3.1-.4.1-.1.1-.2.1-.2.2-.1.1-.1.2-.1.3v.2c0 .1.1.1.2.2s.2.1.4.2.4.1.8.2c.3.1.5.1.7.2.2.1.3.2.5.2l.3.3c.1.1.1.3.1.5s0 .4-.1.5c-.1.2-.2.3-.3.4-.1.1-.3.2-.5.3-.2.4-.4.5-.7.5zM61.1 117.4h-.5V113h.5v4.4zm0-5.5h-.5v-.7h.5v.7zM64 117.4h-.4c-.2 0-.4 0-.5-.1-.1-.1-.2-.1-.3-.2-.1-.1-.1-.2-.1-.4V113.4h-.6v-.4h.6v-1.1h.5v1.1h.7v.5h-.7v3.1c0 .1.1.2.1.2.1.1.1.1.2.1h.5v.5zM72.9 116.8c-.2.1-.3.2-.5.3-.1.1-.3.2-.4.2-.1.1-.3.1-.4.1h-.4c-.2 0-.4 0-.5-.1-.2-.1-.3-.1-.4-.2-.1-.1-.2-.2-.3-.4-.1-.2-.1-.3-.1-.5 0-.5.2-.9.6-1.2.4-.3 1.1-.4 1.9-.4h.5v-.5c0-.2-.1-.3-.2-.4-.1-.1-.2-.2-.4-.3-.2-.1-.4-.1-.7-.1-.4 0-.7.1-.9.2-.2.1-.3.3-.4.6H70c0-.4.2-.7.5-.9.3-.2.7-.3 1.2-.3.3 0 .6 0 .8.1.2.1.4.2.5.3.1.1.2.3.3.5.1.2.1.4.1.7v2.9h-.5v-.6zm0-1.7h-.7c-.7 0-1.1.1-1.5.3-.3.2-.5.5-.5.8 0 .3.1.5.3.6.2.1.5.2.8.2.2 0 .3 0 .4-.1.1 0 .3-.1.4-.2.1-.1.2-.2.4-.3l.3-.3v-1zM85.7 117.4h-.5v-2.9c0-.4-.1-.7-.2-.9-.1-.2-.4-.3-.7-.3-.2 0-.5.1-.7.2-.2.1-.4.4-.7.6v3.2h-.5v-3.4c0-.2-.1-.3-.1-.4-.1-.1-.2-.2-.3-.2-.1 0-.2-.1-.4-.1s-.5.1-.7.2c-.2.1-.4.4-.7.6v3.2h-.5V113h.5v.7l.4-.4c.1-.1.3-.2.4-.2.1-.1.2-.1.3-.1h.3c.3 0 .5.1.7.2.2.1.3.3.4.6.1-.2.2-.3.4-.4.1-.1.3-.2.4-.2.1-.1.3-.1.4-.1h.4c.8 0 1.2.5 1.2 1.6v2.7zM88.9 117.5c-.3 0-.6-.1-.8-.2-.2-.1-.5-.3-.6-.5-.2-.2-.3-.4-.4-.7-.1-.3-.1-.6-.1-1s0-.7.1-1c.1-.3.2-.5.4-.7.2-.2.4-.3.6-.5.2-.1.5-.2.8-.2.3 0 .6.1.8.2.2.1.4.3.6.5.2.2.3.4.4.7.1.3.1.6.1 1v.1h-3.5c0 .3.1.6.2.8.1.2.2.4.3.5.1.1.3.3.5.3.2.1.4.1.6.1.2 0 .3 0 .5-.1.2 0 .3-.1.4-.2l.3-.3c.1-.1.1-.2.1-.4h.4c0 .2-.1.4-.2.6-.1.2-.2.3-.4.4-.2.1-.3.2-.5.3-.2.2-.4.3-.6.3zm1.4-2.7c-.1-.5-.2-.9-.5-1.1-.3-.2-.6-.4-1-.4-.2 0-.4 0-.5.1-.2.1-.3.2-.4.3-.1.1-.2.3-.3.5-.1.2-.2.4-.2.7h2.9zM93.4 117.4H93c-.2 0-.4 0-.5-.1-.1-.1-.2-.1-.3-.2-.1-.1-.1-.2-.1-.4V113.4h-.6v-.4h.6v-1.1h.5v1.1h.7v.5h-.7v3.1c0 .1.1.2.1.2.1.1.1.1.2.1h.5v.5z" class="st5"/></svg>